<svg width="7" height="7" viewBox="0 0 7 7" version="1.1" xmlns="http://www.w3.org/2000/svg" xmlns:xlink="http://www.w3.org/1999/xlink">
<title>thumb-down</title>
<desc>Created using Figma</desc>
<g id="Canvas" transform="translate(-50 330)">
<g id="thumb-down">
<g id="Vector">
<use xlink:href="#path0_fill" transform="translate(50 -330)" fill="#FFFFFF"/>
</g>
</g>
</g>
<defs>
<path id="path0_fill" d="M 0 0L 0 4L 1 4L 1 0L 0 0ZM 2 0L 2 4C 2.28 4 2.53 4.09 2.72 4.28C 2.91 4.47 3.87 6.4 4 6.66C 4.13 6.92 4.39 7.05 4.66 6.97C 4.92 6.89 5.06 6.61 4.97 6.34C 4.89 6.08 4.5 4.75 4.5 4.5C 4.5 4.25 4.72 4 5 4L 6.5 4C 6.78 4 7 3.78 7 3.5C 7 3.22 5.97 0.31 5.97 0.31C 5.89 0.13 5.71 5.55112e-17 5.5 5.55112e-17L 2 5.55112e-17L 2 0Z"/>
</defs>
</svg>
